<svg xmlns="http://www.w3.org/2000/svg" viewBox="0 0 521.742 114.71">
  <defs>
    <style>
      .cls-1 {
        fill: #93c955;
      }

      .cls-2 {
        fill: #86b74d;
      }

      .cls-3 {
        fill: #505050;
      }

      .cls-4 {
        fill: #a87648;
      }

      .cls-5 {
        fill: #bf9266;
      }

      .cls-6 {
        fill: none;
      }
    </style>
  </defs>
  <g id="Gruppe_92" data-name="Gruppe 92" transform="translate(-0.258 -0.153)">
    <g id="Seed" transform="translate(0.258 0.153)">
      <g id="Gruppe_31" data-name="Gruppe 31" transform="translate(12.651 0)">
        <g id="Gruppe_29" data-name="Gruppe 29" transform="translate(3.371 3.371)">
          <g id="Gruppe_27" data-name="Gruppe 27">
            <path id="Pfad_21" data-name="Pfad 21" class="cls-1" d="M49.9,79.907c0,22.963,13.378,41.607,29.81,41.607V38.3C63.172,38.3,49.9,56.944,49.9,79.907Z" transform="translate(-49.9 -38.3)"/>
          </g>
          <g id="Gruppe_28" data-name="Gruppe 28" transform="translate(29.704)">
            <path id="Pfad_22" data-name="Pfad 22" class="cls-2" d="M78.1,38.3v83.32c16.432,0,29.81-18.644,29.81-41.607C107.91,56.944,94.532,38.3,78.1,38.3Z" transform="translate(-78.1 -38.3)"/>
          </g>
        </g>
        <g id="Gruppe_30" data-name="Gruppe 30">
          <path id="Pfad_23" data-name="Pfad 23" class="cls-3" d="M79.775,125.056c-18.223,0-33.075-20.119-33.075-44.978C46.7,55.324,61.552,35.1,79.775,35.1S112.85,55.219,112.85,80.078C112.85,104.832,98.1,125.056,79.775,125.056Zm0-83.32c-14.536,0-26.439,17.275-26.439,38.342,0,21.172,11.9,38.342,26.439,38.342,14.642,0,26.439-17.17,26.439-38.342C106.32,59.011,94.417,41.736,79.775,41.736Z" transform="translate(-46.7 -35.1)"/>
        </g>
      </g>
      <g id="Gruppe_42" data-name="Gruppe 42" transform="translate(0 34.023)">
        <g id="Gruppe_34" data-name="Gruppe 34" transform="translate(46.253 3.371)">
          <path id="Pfad_26" data-name="Pfad 26" class="cls-4" d="M81.971,144.65a3.268,3.268,0,0,1-2.317-.948A3.629,3.629,0,0,1,78.6,141.28c.421-13.378,2.739-46.031,18.328-62.042a27.523,27.523,0,0,1,17.7-8.637h.316a3.372,3.372,0,0,1,3.265,2.739c1.685,9.059,6,40.238-8.216,58.145-6.32,8.005-15.695,12.535-27.808,13.167Z" transform="translate(-78.6 -70.6)"/>
        </g>
        <g id="Gruppe_41" data-name="Gruppe 41">
          <g id="Gruppe_40" data-name="Gruppe 40">
            <g id="Gruppe_35" data-name="Gruppe 35" transform="translate(3.642 3.371)">
              <path id="Pfad_27" data-name="Pfad 27" class="cls-5" d="M76.123,144.65c-12.008-.737-21.383-5.161-27.808-13.167-14.22-17.907-9.9-48.981-8.216-58.145A3.372,3.372,0,0,1,43.364,70.6h.316a27.524,27.524,0,0,1,17.7,8.637C76.966,95.143,79.389,127.9,79.6,141.28a3.05,3.05,0,0,1-1.053,2.423,3.268,3.268,0,0,1-2.317.948Z" transform="translate(-38.147 -70.6)"/>
            </g>
            <g id="Gruppe_39" data-name="Gruppe 39">
              <g id="Gruppe_36" data-name="Gruppe 36" transform="translate(6.957 6.636)">
                <path id="Pfad_28" data-name="Pfad 28" class="cls-6" d="M58.891,81.389A25.054,25.054,0,0,0,43.2,73.7c-1.685,9.059-5.688,38.763,7.584,55.511,5.793,7.268,14.326,11.271,25.386,11.9C75.956,130.475,74.059,96.874,58.891,81.389Z" transform="translate(-41.294 -73.7)"/>
              </g>
              <g id="Gruppe_37" data-name="Gruppe 37" transform="translate(49.729 6.741)">
                <path id="Pfad_29" data-name="Pfad 29" class="cls-6" d="M99.175,81.384C84.007,96.868,82.111,130.47,81.9,141.214c11.06-.632,19.592-4.635,25.386-11.9,13.272-16.854,9.27-46.453,7.584-55.511A23.218,23.218,0,0,0,99.175,81.384Z" transform="translate(-81.9 -73.8)"/>
              </g>
              <g id="Gruppe_38" data-name="Gruppe 38">
                <path id="Pfad_30" data-name="Pfad 30" class="cls-3" d="M123.814,72.877a6.659,6.659,0,0,0-6.531-5.477h-.632a31.277,31.277,0,0,0-19.8,9.585c-9.164,9.375-14.01,23.911-16.538,37.394C77.783,100.9,72.937,86.36,63.773,76.985A30.764,30.764,0,0,0,43.97,67.4h-.632a6.642,6.642,0,0,0-6.531,5.477c-6.636,36.446,4,54.669,8.953,60.778,6.952,8.848,17.17,13.694,30.126,14.431h8.743c13.062-.737,23.174-5.583,30.126-14.431C119.811,127.441,130.45,109.218,123.814,72.877Zm-72.681,56.67C37.861,112.8,41.863,83.095,43.549,74.036a24.276,24.276,0,0,1,15.695,7.689c15.168,15.484,17.064,49.086,17.275,59.83C65.458,140.818,56.926,136.816,51.133,129.548Zm58.566,0c-5.793,7.268-14.326,11.271-25.386,11.9.211-10.744,2.107-44.346,17.275-59.83a25.054,25.054,0,0,1,15.695-7.689C118.968,83.095,123.077,112.694,109.7,129.548Z" transform="translate(-34.69 -67.4)"/>
              </g>
            </g>
          </g>
        </g>
      </g>
    </g>
    <path id="Pfad_58" data-name="Pfad 58" class="cls-1" d="M5.586-12.247c2.381,2.381,9.834,7.971,23.292,7.971C44.1-4.276,53.309-15.042,53.309-25.7c0-14.079-12.836-20.393-20.911-23.6C24.22-52.62,21.114-55.518,21.114-59.348c0-2.8,2.8-5.28,6.522-5.28,6.315,0,13.872,5.694,14.8,6.211.932.725,2.8-.207,3.52-1.346l5.279-7.971c.414-.725.621-2.588-.621-3.313C47.512-73.323,39.23-78.81,28.464-78.81c-15.942,0-23.913,10.352-23.913,20.6,0,12.422,11.18,19.358,20.083,22.878,7.039,2.8,10.663,6.108,10.663,10.455,0,3.623-3,6.211-7.143,6.211-6.832,0-14.286-5.487-14.7-5.694a2.67,2.67,0,0,0-3.52.621L5.069-15.145C4.24-13.7,4.551-13.282,5.586-12.247ZM65.938-7.278A1.966,1.966,0,0,0,67.9-5.311h42.857a1.966,1.966,0,0,0,1.967-1.967V-18.562a1.966,1.966,0,0,0-1.967-1.967H82.087V-34.5h23.6a1.966,1.966,0,0,0,1.967-1.967V-47.754a2.036,2.036,0,0,0-1.967-1.967h-23.6V-62.557h28.675a1.966,1.966,0,0,0,1.967-1.967V-75.808a1.966,1.966,0,0,0-1.967-1.967H67.9a1.966,1.966,0,0,0-1.967,1.967Zm60.662,0a1.966,1.966,0,0,0,1.967,1.967h42.857a1.966,1.966,0,0,0,1.967-1.967V-18.562a1.966,1.966,0,0,0-1.967-1.967H142.749V-34.5h23.6a1.966,1.966,0,0,0,1.967-1.967V-47.754a2.036,2.036,0,0,0-1.967-1.967h-23.6V-62.557h28.675a1.966,1.966,0,0,0,1.967-1.967V-75.808a1.966,1.966,0,0,0-1.967-1.967H128.567a1.966,1.966,0,0,0-1.967,1.967Zm60.662,0a1.946,1.946,0,0,0,1.863,1.967h25.259A36.382,36.382,0,0,0,250.72-41.646a36.339,36.339,0,0,0-36.335-36.128H189.126a1.946,1.946,0,0,0-1.863,1.967Zm16.149-13.354V-62.557h9.938c11.7,0,20.186,9.213,20.186,20.911,0,11.8-8.489,21.014-20.186,21.014Z" transform="translate(271.28 101.963)"/>
    <path id="Pfad_59" data-name="Pfad 59" class="cls-3" d="M22.221-5.725a1.989,1.989,0,0,0,1.863,1.449h1.656A2.1,2.1,0,0,0,27.5-5.415L46.342-47.754h.311L65.6-5.415a2.1,2.1,0,0,0,1.76,1.139h1.656a1.989,1.989,0,0,0,1.863-1.449L90.441-75.29a1.8,1.8,0,0,0-1.863-2.484H76.466A2.127,2.127,0,0,0,74.6-76.326L65.7-41.232h-.414L49.24-77.671a1.76,1.76,0,0,0-1.76-1.139H45.617a1.973,1.973,0,0,0-1.76,1.139L27.812-41.232H27.4l-8.9-35.093a2.127,2.127,0,0,0-1.863-1.449H4.52A1.8,1.8,0,0,0,2.656-75.29Zm79.3-1.553a1.966,1.966,0,0,0,1.967,1.967H115.7a2.036,2.036,0,0,0,1.967-1.967V-31.605h10.87A23.284,23.284,0,0,0,151.621-54.9a23.153,23.153,0,0,0-23.188-22.878H103.484a1.966,1.966,0,0,0-1.967,1.967Zm16.149-39.441V-62.557H127.5a7.9,7.9,0,0,1,8.178,7.66,8.129,8.129,0,0,1-8.178,8.178Z" transform="translate(116.602 101.963)"/>
  </g>
</svg>
