<?xml version="1.0" encoding="UTF-8" standalone="no"?>
<svg width="86px" height="86px" viewBox="0 0 86 86" version="1.1" xmlns="http://www.w3.org/2000/svg" xmlns:xlink="http://www.w3.org/1999/xlink" xmlns:sketch="http://www.bohemiancoding.com/sketch/ns">
    <!-- Generator: Sketch 3.4.2 (15855) - http://www.bohemiancoding.com/sketch -->
    <title>Oval 1 + W</title>
    <desc>Created with Sketch.</desc>
    <defs></defs>
    <g id="Page-1" stroke="none" stroke-width="1" fill="none" fill-rule="evenodd" sketch:type="MSPage">
        <g id="Oval-1-+-W" sketch:type="MSLayerGroup">
            <circle id="Oval-1" fill="#98C475" sketch:type="MSShapeGroup" cx="43" cy="43" r="43"></circle>
            <path d="M45.6040998,31.9193803 C45.9799416,33.2035067 46.3949275,34.6520422 46.8490697,36.2650302 C47.303212,37.8780183 47.7886671,39.5457916 48.3054497,41.2684002 C48.8222323,42.9910088 49.3468371,44.7135915 49.8792797,46.4362001 C50.4117224,48.1588087 50.9284972,49.7561127 51.4296197,51.2281601 C51.8367817,49.6308321 52.2517676,47.8925895 52.6745897,46.0133801 C53.0974118,44.1341708 53.4967378,42.1923502 53.8725797,40.1878602 C54.2484215,38.1833702 54.6164279,36.1867402 54.9766097,34.1979103 C55.3367915,32.2090803 55.6734781,30.2907495 55.9866796,28.4428603 L63.5974396,28.4428603 C62.5012341,33.8925675 61.2406167,39.4204922 59.8155496,45.0268002 C58.3904825,50.6331081 56.8479879,55.9574548 55.1880197,61 L48.4698797,61 C47.3736743,57.993265 46.3088049,54.8378066 45.2752398,51.5335301 C44.2416746,48.2292536 43.2237848,44.9171968 42.2215398,41.5972602 C41.2192948,44.9171968 40.2170648,48.2292536 39.2148198,51.5335301 C38.2125748,54.8378066 37.1633653,57.993265 36.0671598,61 L29.3490199,61 C27.6890516,55.9574548 26.1465571,50.6331081 24.72149,45.0268002 C23.2964228,39.4204922 22.0358055,33.8925675 20.9396,28.4428603 L28.8792199,28.4428603 C29.1924215,30.2907495 29.536938,32.2090803 29.9127799,34.1979103 C30.2886218,36.1867402 30.6801179,38.1833702 31.0872799,40.1878602 C31.4944419,42.1923502 31.9094278,44.1341708 32.3322499,46.0133801 C32.755072,47.8925895 33.1857177,49.6308321 33.6241999,51.2281601 C34.1879627,49.6934724 34.7360572,48.0648487 35.2684999,46.3422401 C35.8009425,44.6196315 36.3177173,42.8970488 36.8188398,41.1744402 C37.3199623,39.4518316 37.7819277,37.7918882 38.2047498,36.1945602 C38.6275719,34.5972323 39.0112381,33.1721865 39.3557598,31.9193803 L45.6040998,31.9193803 Z" id="W" fill="#FFFFFF" sketch:type="MSShapeGroup"></path>
        </g>
    </g>
</svg>